<?xml version="1.0" standalone="no"?>
<!DOCTYPE svg PUBLIC "-//W3C//DTD SVG 20010904//EN"
 "http://www.w3.org/TR/2001/REC-SVG-20010904/DTD/svg10.dtd">
<svg version="1.0" xmlns="http://www.w3.org/2000/svg"
 width="360.000000pt" height="40.000000pt" viewBox="0 0 360.000000 40.000000"
 preserveAspectRatio="xMidYMid meet">

<g transform="translate(0.000000,40.000000) scale(0.100000,-0.100000)"
fill="#000000" stroke="none">
<path d="M225 361 c-44 -11 -70 -27 -99 -61 -47 -56 -43 -141 8 -189 19 -18
28 -20 49 -12 34 13 34 17 -3 51 -42 40 -41 81 5 127 34 34 37 35 103 31 48
-2 85 -12 133 -34 57 -27 69 -30 89 -19 22 12 21 14 -41 48 -96 52 -183 73
-244 58z"/>
<path d="M892 291 c-10 -6 -5 -10 17 -14 61 -12 62 -74 2 -131 -56 -53 -126
-53 -220 1 -33 19 -48 23 -64 16 -20 -9 -19 -11 18 -35 67 -42 130 -61 180
-56 85 10 155 79 155 152 0 44 -57 87 -88 67z"/>
<path d="M1094 276 c-37 -31 -39 -90 -5 -117 29 -24 91 -26 91 -3 0 11 -5 14
-16 10 -27 -10 -64 20 -64 52 0 36 17 52 52 52 18 0 28 5 28 15 0 24 -55 18
-86 -9z"/>
<path d="M1252 293 c-7 -3 -19 -18 -28 -35 -29 -57 6 -118 68 -118 41 0 68 32
68 80 0 62 -50 96 -108 73z m66 -35 c17 -17 15 -64 -4 -82 -18 -19 -20 -19
-45 -6 -37 20 -20 100 21 100 9 0 21 -5 28 -12z"/>
<path d="M1410 220 c0 -64 3 -80 15 -80 11 0 15 11 15 36 0 34 1 35 33 32 28
-3 32 -7 35 -35 2 -21 9 -33 18 -33 11 0 14 17 14 80 0 64 -3 80 -15 80 -10 0
-15 -11 -15 -35 0 -33 -2 -35 -35 -35 -33 0 -35 2 -35 35 0 24 -5 35 -15 35
-12 0 -15 -16 -15 -80z"/>
<path d="M1590 220 l0 -80 45 0 c34 0 45 4 45 16 0 11 -8 15 -27 12 -23 -2
-29 1 -31 20 -3 18 1 22 22 22 14 0 26 5 26 10 0 6 -11 10 -25 10 -18 0 -25 5
-25 20 0 16 7 20 30 20 20 0 30 5 30 15 0 11 -12 15 -45 15 l-45 0 0 -80z"/>
<path d="M1720 220 c0 -64 3 -80 15 -80 10 0 15 10 15 30 0 20 5 30 15 30 8 0
21 -13 30 -30 10 -19 23 -30 36 -30 20 0 20 2 -6 36 -25 33 -26 38 -11 46 9 5
16 20 16 34 0 27 -30 44 -81 44 l-29 0 0 -80z m76 39 c8 -14 -21 -43 -35 -35
-6 4 -11 16 -11 27 0 21 34 27 46 8z"/>
<path d="M1880 220 l0 -80 45 0 c34 0 45 4 45 16 0 11 -8 15 -27 12 -22 -2
-28 1 -28 17 0 14 8 21 28 23 33 4 26 22 -9 22 -17 0 -24 5 -24 20 0 16 7 20
30 20 20 0 30 5 30 15 0 11 -12 15 -45 15 l-45 0 0 -80z"/>
<path d="M2010 220 c0 -63 3 -80 15 -80 10 0 15 15 17 58 l3 57 35 -57 c21
-34 42 -58 53 -58 15 0 17 10 17 80 0 64 -3 80 -15 80 -12 0 -15 -13 -15 -57
l-1 -58 -36 58 c-23 36 -43 57 -54 57 -17 0 -19 -9 -19 -80z"/>
<path d="M2190 285 c0 -8 9 -15 20 -15 18 0 20 -7 20 -65 0 -51 3 -65 15 -65
12 0 15 14 15 65 0 63 1 65 25 65 16 0 25 6 25 15 0 12 -13 15 -60 15 -47 0
-60 -3 -60 -15z"/>
<path d="M530 230 c-8 -5 -12 -11 -10 -13 57 -44 63 -46 83 -35 21 11 20 11
-9 34 -32 26 -42 28 -64 14z"/>
<path d="M198 93 c-10 -2 -18 -9 -18 -14 0 -6 8 -5 20 1 11 6 20 13 20 15 0 3
-1 4 -2 4 -2 -1 -11 -3 -20 -6z"/>
</g>
</svg>
